<svg version="1.1" xmlns="http://www.w3.org/2000/svg" xmlns:xlink="http://www.w3.org/1999/xlink" width="190.13525390625" height="336"><defs/><g><g transform="translate(-276,-38) scale(1,1)"><path fill="#C0C0C0" stroke="none" d="M 369 64.5 C 369 59.2532944 373.2532944 55 378.5 55 C 383.7467056 55 388 59.2532944 388 64.5 C 388 69.7467056 383.7467056 74 378.5 74 C 373.2532944 74 369 69.7467056 369 64.5 Z" opacity="0.2"/></g><g transform="translate(-276,-38) scale(1,1)"><path fill="#000000" stroke="none" d="M 362 57.5 C 362 52.2532944 366.2532944 48 371.5 48 C 376.7467056 48 381 52.2532944 381 57.5 C 381 62.7467056 376.7467056 67 371.5 67 C 366.2532944 67 362 62.7467056 362 57.5 Z"/></g><g transform="translate(-276,-38) scale(1,1)"><path fill="#C0C0C0" stroke="none" d="M 359 109 L 398 109 Q 408 109 408 119 L 408 138 Q 408 148 398 148 L 359 148 Q 349 148 349 138 L 349 119 Q 349 109 359 109 Z" opacity="0.2"/></g><g transform="translate(-276,-38) scale(1,1)"><path fill="#ffffff" stroke="none" d="M 352 102 L 391 102 Q 401 102 401 112 L 401 131 Q 401 141 391 141 L 352 141 Q 342 141 342 131 L 342 112 Q 342 102 352 102 Z"/></g><g transform="translate(-276,-38) scale(1,1)"><path fill="none" stroke="#000000" d="M 352 102 L 391 102 Q 401 102 401 112 L 401 131 Q 401 141 391 141 L 352 141 Q 342 141 342 131 L 342 112 Q 342 102 352 102 Z" stroke-miterlimit="10"/></g><g transform="translate(-276,-38) scale(1,1)"><g><path fill="none" stroke="none"/><text fill="#000000" stroke="none" font-family="Arial" font-size="13px" font-style="normal" font-weight="bold" text-decoration="none" x="349.464111328125" y="121.5">Icall Init</text></g></g><g transform="translate(-276,-38) scale(1,1)"><path fill="#C0C0C0" stroke="none" d="M 303 183 L 453.13525390625 183 Q 463.13525390625 183 463.13525390625 193 L 463.13525390625 212 Q 463.13525390625 222 453.13525390625 222 L 303 222 Q 293 222 293 212 L 293 193 Q 293 183 303 183 Z" opacity="0.2"/></g><g transform="translate(-276,-38) scale(1,1)"><path fill="#ffffff" stroke="none" d="M 296 176 L 446.13525390625 176 Q 456.13525390625 176 456.13525390625 186 L 456.13525390625 205 Q 456.13525390625 215 446.13525390625 215 L 296 215 Q 286 215 286 205 L 286 186 Q 286 176 296 176 Z"/></g><g transform="translate(-276,-38) scale(1,1)"><path fill="none" stroke="#000000" d="M 296 176 L 446.13525390625 176 Q 456.13525390625 176 456.13525390625 186 L 456.13525390625 205 Q 456.13525390625 215 446.13525390625 215 L 296 215 Q 286 215 286 205 L 286 186 Q 286 176 296 176 Z" stroke-miterlimit="10"/></g><g transform="translate(-276,-38) scale(1,1)"><g><path fill="none" stroke="none"/><text fill="#000000" stroke="none" font-family="Arial" font-size="13px" font-style="normal" font-weight="bold" text-decoration="none" x="294.486328125" y="195.5">Icall Create Remote Tasks</text></g></g><g transform="translate(-276,-38) scale(1,1)"><path fill="#C0C0C0" stroke="none" d="M 350 257 L 406.17724609375 257 Q 416.17724609375 257 416.17724609375 267 L 416.17724609375 286 Q 416.17724609375 296 406.17724609375 296 L 350 296 Q 340 296 340 286 L 340 267 Q 340 257 350 257 Z" opacity="0.2"/></g><g transform="translate(-276,-38) scale(1,1)"><path fill="#ffffff" stroke="none" d="M 343 250 L 399.17724609375 250 Q 409.17724609375 250 409.17724609375 260 L 409.17724609375 279 Q 409.17724609375 289 399.17724609375 289 L 343 289 Q 333 289 333 279 L 333 260 Q 333 250 343 250 Z"/></g><g transform="translate(-276,-38) scale(1,1)"><path fill="none" stroke="#000000" d="M 343 250 L 399.17724609375 250 Q 409.17724609375 250 409.17724609375 260 L 409.17724609375 279 Q 409.17724609375 289 399.17724609375 289 L 343 289 Q 333 289 333 279 L 333 260 Q 333 250 343 250 Z" stroke-miterlimit="10"/></g><g transform="translate(-276,-38) scale(1,1)"><g><path fill="none" stroke="none"/><text fill="#000000" stroke="none" font-family="Arial" font-size="13px" font-style="normal" font-weight="bold" text-decoration="none" x="340.016845703125" y="269.5">Sensor Init</text></g></g><g transform="translate(-276,-38) scale(1,1)"><path fill="#C0C0C0" stroke="none" d="M 335 331 L 422.2744140625 331 Q 432.2744140625 331 432.2744140625 341 L 432.2744140625 360 Q 432.2744140625 370 422.2744140625 370 L 335 370 Q 325 370 325 360 L 325 341 Q 325 331 335 331 Z" opacity="0.2"/></g><g transform="translate(-276,-38) scale(1,1)"><path fill="#ffffff" stroke="none" d="M 328 324 L 415.2744140625 324 Q 425.2744140625 324 425.2744140625 334 L 425.2744140625 353 Q 425.2744140625 363 415.2744140625 363 L 328 363 Q 318 363 318 353 L 318 334 Q 318 324 328 324 Z"/></g><g transform="translate(-276,-38) scale(1,1)"><path fill="none" stroke="#000000" d="M 328 324 L 415.2744140625 324 Q 425.2744140625 324 425.2744140625 334 L 425.2744140625 353 Q 425.2744140625 363 415.2744140625 363 L 328 363 Q 318 363 318 353 L 318 334 Q 318 324 328 324 Z" stroke-miterlimit="10"/></g><g transform="translate(-276,-38) scale(1,1)"><g><path fill="none" stroke="none"/><text fill="#000000" stroke="none" font-family="Arial" font-size="13px" font-style="normal" font-weight="bold" text-decoration="none" x="325.75634765625" y="343.5">Sensor Process</text></g></g><g transform="translate(-276,-38) scale(1,1)"><path fill="none" stroke="#000000" d="M 371 68 L 371 101" stroke-miterlimit="10"/></g><g transform="translate(-276,-38) scale(1,1)"><path fill="none" stroke="#000000" d="M 366.790482243984 90.83732514237585 L 371 101 L 375.209517756016 90.83732514237585" stroke-miterlimit="10"/></g><g transform="translate(-276,-38) scale(1,1)"><path fill="none" stroke="#000000" d="M 371 142 L 371 175" stroke-miterlimit="10"/></g><g transform="translate(-276,-38) scale(1,1)"><path fill="none" stroke="#000000" d="M 366.790482243984 164.83732514237585 L 371 175 L 375.209517756016 164.83732514237585" stroke-miterlimit="10"/></g><g transform="translate(-276,-38) scale(1,1)"><path fill="none" stroke="#000000" d="M 371 216 L 371 249" stroke-miterlimit="10"/></g><g transform="translate(-276,-38) scale(1,1)"><path fill="none" stroke="#000000" d="M 366.790482243984 238.83732514237585 L 371 249 L 375.209517756016 238.83732514237585" stroke-miterlimit="10"/></g><g transform="translate(-276,-38) scale(1,1)"><path fill="none" stroke="#000000" d="M 371 290 L 371 323" stroke-miterlimit="10"/></g><g transform="translate(-276,-38) scale(1,1)"><path fill="none" stroke="#000000" d="M 366.790482243984 312.83732514237585 L 371 323 L 375.209517756016 312.83732514237585" stroke-miterlimit="10"/></g><g transform="translate(-276,-38) scale(1,1)"><path fill="none" stroke="#000000" d="M 425 363 L 425 363" stroke-miterlimit="10"/></g><g transform="translate(-276,-38) scale(1,1)"><path fill="none" stroke="#000000" d="M NaN NaN L 425 363 L NaN NaN" stroke-miterlimit="10"/></g></g></svg>